<svg width="146" height="84" viewBox="0 0 146 84" fill="none" xmlns="http://www.w3.org/2000/svg">
<g clip-path="url(#clip0_17_1892)">
<path d="M32.8574 83.045C36.4637 83.045 39.3872 80.1121 39.3872 76.4942C39.3872 72.8763 36.4637 69.9434 32.8574 69.9434C29.2511 69.9434 26.3276 72.8763 26.3276 76.4942C26.3276 80.1121 29.2511 83.045 32.8574 83.045Z" fill="#6E5780"/>
<path d="M15.3345 71.1107C22.058 71.1107 27.5084 65.6427 27.5084 58.8976C27.5084 52.1525 22.058 46.6846 15.3345 46.6846C8.61109 46.6846 3.16064 52.1525 3.16064 58.8976C3.16064 65.6427 8.61109 71.1107 15.3345 71.1107Z" fill="#0D6E85"/>
<path d="M14.2231 40.6389C22.0784 40.6389 28.4463 34.2505 28.4463 26.37C28.4463 18.4895 22.0784 12.1011 14.2231 12.1011C6.36792 12.1011 0 18.4895 0 26.37C0 34.2505 6.36792 40.6389 14.2231 40.6389Z" fill="#009682"/>
<path d="M36.7128 16.6483C41.2878 16.6483 44.9966 12.9275 44.9966 8.3378C44.9966 3.74806 41.2878 0.0273438 36.7128 0.0273438C32.1377 0.0273438 28.429 3.74806 28.429 8.3378C28.429 12.9275 32.1377 16.6483 36.7128 16.6483Z" fill="#5CBAD1"/>
<path d="M54.2876 12.1357C56.3785 12.1357 58.0735 10.4352 58.0735 8.33762C58.0735 6.24 56.3785 4.53955 54.2876 4.53955C52.1967 4.53955 50.5017 6.24 50.5017 8.33762C50.5017 10.4352 52.1967 12.1357 54.2876 12.1357Z" fill="#A6DEEB"/>
<path d="M44.8923 23.7215C44.7013 23.5647 44.4408 23.4427 44.1455 23.3382C43.8503 23.2337 43.503 23.1466 43.1036 23.0769C42.791 23.0246 42.5305 22.9549 42.3221 22.8678C42.0963 22.7981 41.94 22.6936 41.8184 22.5542C41.6969 22.4323 41.6448 22.258 41.6448 22.0664C41.6448 21.8922 41.6969 21.7528 41.8011 21.6308C41.9053 21.5089 42.0442 21.4043 42.2352 21.3346C42.4263 21.265 42.6694 21.2301 42.9473 21.2301C43.1209 21.2301 43.312 21.265 43.503 21.3172C43.694 21.3695 43.885 21.4392 44.0761 21.5263C44.2497 21.6134 44.3887 21.7005 44.5102 21.7876C44.5971 21.8399 44.6839 21.8747 44.7707 21.8747C44.927 21.8747 45.0486 21.8225 45.1702 21.7005C45.2744 21.5786 45.3438 21.4566 45.3438 21.2998C45.3438 21.1082 45.2396 20.9165 45.0486 20.7771C44.8228 20.5855 44.5102 20.4113 44.1455 20.2893C43.7808 20.1673 43.3814 20.0977 42.9473 20.0977C42.4957 20.0977 42.0789 20.1848 41.6969 20.3416C41.3148 20.4984 41.0196 20.7249 40.7938 21.0385C40.568 21.3521 40.4638 21.7179 40.4638 22.1361C40.4638 22.4148 40.5159 22.6762 40.6028 22.9027C40.6896 23.1291 40.8285 23.3382 41.0196 23.495C41.1932 23.6692 41.4364 23.8086 41.6969 23.9131C41.9747 24.0177 42.2873 24.1048 42.6347 24.1571C43.0167 24.2093 43.3293 24.279 43.5724 24.3836C43.8156 24.4881 44.0066 24.5926 44.1108 24.732C44.2324 24.8714 44.2845 25.0456 44.2845 25.2372C44.2845 25.4115 44.215 25.5508 44.0934 25.6728C43.9719 25.7948 43.7982 25.8993 43.5898 25.9864C43.3814 26.0561 43.1557 26.1084 42.9125 26.1084C42.5478 26.1084 42.2352 26.0561 41.9921 25.9516C41.749 25.847 41.4885 25.6902 41.2453 25.4812C41.1411 25.394 41.0369 25.3592 40.9154 25.3592C40.7417 25.3592 40.6201 25.4115 40.4986 25.5334C40.3944 25.6554 40.3423 25.7773 40.3423 25.9341C40.3423 26.0213 40.3597 26.1258 40.4118 26.2129C40.4638 26.3 40.5159 26.3871 40.6028 26.4568C40.9327 26.753 41.2974 26.9446 41.6621 27.0666C42.0268 27.1885 42.4436 27.2408 42.9125 27.2408C43.3641 27.2408 43.7808 27.1537 44.1629 26.9969C44.545 26.8227 44.8576 26.5962 45.1007 26.2826C45.3438 25.969 45.4654 25.6031 45.4654 25.1676C45.4654 24.8365 45.4133 24.5404 45.3091 24.3139C45.2396 24.0699 45.1007 23.8783 44.8923 23.7215Z" fill="white"/>
<path d="M51.561 20.1846C51.3873 20.1846 51.2484 20.2368 51.1616 20.3588C51.0574 20.4807 51.0053 20.6201 51.0053 20.7944V24.4008C51.0053 24.7318 50.9358 25.028 50.7795 25.2545C50.6232 25.4984 50.4322 25.69 50.189 25.812C49.9459 25.9514 49.6854 26.0036 49.3902 26.0036C49.1297 26.0036 48.8692 25.9339 48.6434 25.812C48.4003 25.6726 48.2266 25.4984 48.0703 25.2545C47.9314 25.0106 47.8619 24.7318 47.8619 24.4008V20.7944C47.8619 20.6201 47.7925 20.4807 47.6709 20.3588C47.5493 20.2368 47.4104 20.1846 47.2541 20.1846C47.0631 20.1846 46.9241 20.2368 46.8026 20.3588C46.681 20.4807 46.6289 20.6201 46.6289 20.7944V24.4008C46.6289 24.9583 46.7505 25.4461 46.9762 25.8643C47.2194 26.2824 47.532 26.6134 47.9488 26.8573C48.3656 27.1012 48.8344 27.2232 49.3902 27.2232C49.9285 27.2232 50.4148 27.1012 50.8142 26.8573C51.231 26.6134 51.5436 26.2824 51.7868 25.8643C52.0299 25.4461 52.1341 24.9583 52.1341 24.4008V20.7944C52.1341 20.6201 52.082 20.4807 51.9778 20.3588C51.8736 20.2368 51.7347 20.1846 51.561 20.1846Z" fill="white"/>
<path d="M57.4657 20.4808C57.1704 20.2891 56.8405 20.1846 56.4932 20.1846H54.2355C54.0618 20.1846 53.9229 20.2368 53.8014 20.3588C53.6798 20.4807 53.6277 20.6201 53.6277 20.7944V26.5437C53.6277 26.7179 53.6798 26.8573 53.784 26.9793C53.8882 27.1012 54.0271 27.1535 54.1834 27.1535C54.3571 27.1535 54.496 27.1012 54.6002 26.9793C54.7044 26.8573 54.7565 26.7179 54.7565 26.5437V24.6621H56.4758C56.8231 24.6621 57.1357 24.5576 57.4483 24.3659C57.7609 24.1743 57.9867 23.8955 58.1777 23.5471C58.3687 23.2161 58.4556 22.8328 58.4556 22.4146C58.4556 21.9965 58.3687 21.6132 58.1777 21.2822C58.004 20.9512 57.7609 20.6898 57.4657 20.4808ZM57.1531 22.9547C57.0663 23.1289 56.9794 23.2683 56.8579 23.3729C56.7363 23.4774 56.6147 23.5297 56.4932 23.5297H54.7739V21.3344H56.4932C56.6147 21.3344 56.7363 21.3867 56.8579 21.4912C56.9794 21.5958 57.0836 21.7352 57.1531 21.892C57.2399 22.0662 57.2746 22.2404 57.2746 22.4321C57.2746 22.6063 57.2399 22.7979 57.1531 22.9547Z" fill="white"/>
<path d="M63.4398 20.4808C63.1446 20.2891 62.8146 20.1846 62.4673 20.1846H60.2096C60.036 20.1846 59.897 20.2368 59.7755 20.3588C59.6539 20.4807 59.6018 20.6201 59.6018 20.7944V26.5437C59.6018 26.7179 59.6539 26.8573 59.7581 26.9793C59.8623 27.1012 60.0012 27.1535 60.1575 27.1535C60.3312 27.1535 60.4701 27.1012 60.5743 26.9793C60.6785 26.8573 60.7306 26.7179 60.7306 26.5437V24.6621H62.4499C62.7972 24.6621 63.1098 24.5576 63.4224 24.3659C63.735 24.1743 63.9608 23.8955 64.1518 23.5471C64.3429 23.2161 64.4297 22.8328 64.4297 22.4146C64.4297 21.9965 64.3429 21.6132 64.1518 21.2822C63.9782 20.9512 63.735 20.6898 63.4398 20.4808ZM63.1272 22.9547C63.0404 23.1289 62.9535 23.2683 62.832 23.3729C62.7104 23.4774 62.5888 23.5297 62.4673 23.5297H60.748V21.3344H62.4673C62.5888 21.3344 62.7104 21.3867 62.832 21.4912C62.9535 21.5958 63.0577 21.7352 63.1272 21.892C63.214 22.0662 63.2488 22.2404 63.2488 22.4321C63.2488 22.6063 63.214 22.7979 63.1272 22.9547Z" fill="white"/>
<path d="M71.0289 21.143C70.7337 20.812 70.369 20.5506 69.9522 20.3764C69.5354 20.1848 69.0838 20.0977 68.5976 20.0977C68.1113 20.0977 67.6598 20.1848 67.243 20.3764C66.8262 20.5681 66.4789 20.812 66.1836 21.143C65.8884 21.474 65.6453 21.8573 65.489 22.2754C65.3153 22.711 65.2458 23.164 65.2458 23.6692C65.2458 24.1745 65.3327 24.6275 65.489 25.063C65.6626 25.4986 65.8884 25.8819 66.1836 26.1955C66.4789 26.5265 66.8436 26.7878 67.243 26.9621C67.6598 27.1537 68.094 27.2408 68.5976 27.2408C69.0838 27.2408 69.5354 27.1537 69.9522 26.9621C70.369 26.7704 70.7163 26.5265 71.0289 26.1955C71.3241 25.8644 71.5672 25.4812 71.7235 25.063C71.8798 24.6275 71.9667 24.1745 71.9667 23.6692C71.9667 23.164 71.8798 22.711 71.7235 22.2754C71.5499 21.8399 71.3241 21.474 71.0289 21.143ZM70.4211 24.8714C70.2474 25.2372 70.0043 25.516 69.6917 25.7251C69.3791 25.9341 69.0144 26.0387 68.6149 26.0387C68.1982 26.0387 67.8508 25.9341 67.5382 25.7251C67.2256 25.516 66.9825 25.2198 66.8088 24.8714C66.6352 24.5055 66.5483 24.1048 66.5483 23.6692C66.5483 23.2163 66.6352 22.8155 66.8088 22.4497C66.9825 22.0838 67.2256 21.805 67.5382 21.596C67.8508 21.3869 68.2155 21.2824 68.6149 21.2824C69.0317 21.2824 69.3791 21.3869 69.6917 21.596C70.0043 21.805 70.2474 22.1012 70.4211 22.4497C70.5947 22.8155 70.6816 23.2163 70.6816 23.6518C70.6816 24.1222 70.5947 24.5229 70.4211 24.8714Z" fill="white"/>
<path d="M78.5485 26.178C78.4617 26.1257 78.4096 26.0735 78.3748 25.9864C78.3401 25.8993 78.3227 25.7947 78.3227 25.6728C78.3054 25.5508 78.288 25.394 78.2706 25.2372C78.2533 25.063 78.2185 24.8888 78.1491 24.732C78.0796 24.5752 77.9754 24.4358 77.8538 24.2964C77.767 24.2093 77.6628 24.1396 77.5586 24.0699C77.7149 23.9828 77.8538 23.8608 77.9754 23.7215C78.1491 23.5298 78.288 23.3207 78.3922 23.0768C78.4964 22.8329 78.5485 22.589 78.5485 22.3451C78.5485 21.927 78.4617 21.5611 78.2706 21.2301C78.0796 20.9165 77.8365 20.6551 77.5412 20.4809C77.246 20.3067 76.9161 20.2021 76.5687 20.2021H73.7206C73.547 20.2021 73.408 20.2544 73.2865 20.3764C73.1649 20.4983 73.1128 20.6377 73.1128 20.8119V26.5613C73.1128 26.7355 73.1823 26.8749 73.3386 26.9969C73.4775 27.1188 73.6512 27.1711 73.8422 27.1711C73.9985 27.1711 74.1374 27.1188 74.2242 26.9969C74.3111 26.8749 74.3632 26.7355 74.3632 26.5613V24.6274H76.2214C76.3777 24.6274 76.4993 24.6448 76.6208 24.6797C76.725 24.7145 76.8292 24.7668 76.8987 24.8365C76.9681 24.9062 77.0202 24.9933 77.0723 25.0804C77.1071 25.1849 77.1245 25.2895 77.1245 25.394C77.1245 25.7425 77.1592 26.0212 77.2287 26.2477C77.2981 26.4742 77.3849 26.6484 77.5065 26.7704C77.6107 26.8923 77.7323 26.9969 77.8365 27.0665C77.9059 27.1014 78.0101 27.1362 78.1143 27.1537C78.2185 27.1711 78.3401 27.1711 78.4443 27.1537C78.5485 27.1362 78.6527 27.084 78.7222 26.9969C78.8264 26.8749 78.8785 26.7181 78.8437 26.5613C78.7916 26.3871 78.7048 26.2651 78.5485 26.178ZM77.1418 22.9723C77.0724 23.1639 76.9682 23.3033 76.864 23.4253C76.7598 23.5298 76.6382 23.5821 76.5166 23.5821H74.3458V21.3172H76.5166C76.6903 21.3172 76.864 21.4217 77.0203 21.6134C77.1765 21.805 77.246 22.0489 77.246 22.3451C77.2634 22.589 77.2287 22.7981 77.1418 22.9723Z" fill="white"/>
<path d="M84.3317 20.1846H79.9206C79.7469 20.1846 79.608 20.2368 79.4864 20.3414C79.3648 20.4459 79.3127 20.5853 79.3127 20.7595C79.3127 20.9337 79.3648 21.0731 79.4864 21.1776C79.608 21.2822 79.7469 21.3344 79.9206 21.3344H81.4836V26.5437C81.4836 26.7179 81.5357 26.8573 81.6572 26.9793C81.7788 27.1012 81.9351 27.1535 82.1087 27.1535C82.2998 27.1535 82.4561 27.1012 82.5776 26.9793C82.6992 26.8573 82.7687 26.7179 82.7687 26.5437V21.3344H84.3317C84.5053 21.3344 84.6443 21.2822 84.7658 21.1776C84.8874 21.0731 84.9395 20.9337 84.9395 20.7595C84.9395 20.5853 84.8874 20.4459 84.7658 20.3414C84.6616 20.2368 84.5053 20.1846 84.3317 20.1846Z" fill="white"/>
<path d="M86.624 20.1846C86.4329 20.1846 86.294 20.2368 86.1724 20.3588C86.0509 20.4807 85.9988 20.6201 85.9988 20.7944V26.5437C85.9988 26.7179 86.0509 26.8573 86.1724 26.9793C86.2766 27.1012 86.4329 27.1535 86.624 27.1535C86.7976 27.1535 86.9366 27.1012 87.0581 26.9793C87.1797 26.8573 87.2492 26.7179 87.2492 26.5437V20.7944C87.2492 20.6201 87.1797 20.4807 87.0581 20.3588C86.9192 20.2368 86.7803 20.1846 86.624 20.1846Z" fill="white"/>
<path d="M93.9701 20.1846C93.7964 20.1846 93.6749 20.2368 93.5707 20.3414C93.4665 20.4459 93.4144 20.5853 93.4144 20.7421V25.028L89.8195 20.4111C89.7674 20.3414 89.6979 20.2891 89.5937 20.2543C89.4895 20.2194 89.4027 20.202 89.2985 20.202C89.1248 20.202 88.9859 20.2543 88.8643 20.3762C88.7428 20.4982 88.6907 20.6376 88.6907 20.8118V26.6134C88.6907 26.7702 88.7428 26.9096 88.847 27.0141C88.9512 27.1187 89.0727 27.1709 89.229 27.1709C89.4027 27.1709 89.5243 27.1187 89.6285 27.0141C89.7327 26.9096 89.7848 26.7702 89.7848 26.6134V22.3624L93.4317 26.9967C93.4838 27.049 93.5533 27.0838 93.6401 27.1187C93.727 27.1535 93.8138 27.1709 93.9006 27.1709C94.0743 27.1709 94.2132 27.1187 94.3348 26.9967C94.4563 26.8747 94.5084 26.7354 94.5084 26.5611V20.7595C94.5084 20.6027 94.4563 20.4633 94.3521 20.3588C94.2653 20.2368 94.1437 20.1846 93.9701 20.1846Z" fill="white"/>
<path d="M101.125 23.3905H99.4926C99.3189 23.3905 99.18 23.4428 99.0584 23.5647C98.9368 23.6693 98.8847 23.8261 98.8847 24.0003C98.8847 24.1745 98.9368 24.3139 99.0584 24.4358C99.18 24.5404 99.3189 24.6101 99.4926 24.6101H100.43V25.8993C100.291 25.9516 100.135 25.9864 99.9267 26.0213C99.6836 26.0561 99.4752 26.0735 99.2668 26.0735C98.8326 26.0735 98.4506 25.969 98.0859 25.7425C97.7385 25.5334 97.4433 25.2373 97.2349 24.8714C97.0265 24.5055 96.9223 24.1048 96.9223 23.6693C96.9223 23.2337 97.0265 22.833 97.2349 22.4671C97.4433 22.1012 97.7212 21.8225 98.0859 21.596C98.4332 21.3869 98.8326 21.265 99.2668 21.265C99.4752 21.265 99.6662 21.2824 99.8573 21.3172C100.048 21.3521 100.222 21.4218 100.378 21.4915C100.43 21.5263 100.482 21.5437 100.535 21.5437C100.587 21.5612 100.639 21.5612 100.691 21.5612C100.865 21.5612 100.986 21.4915 101.09 21.3695C101.194 21.2476 101.247 21.1082 101.247 20.9339C101.247 20.8468 101.229 20.7423 101.177 20.6552C101.125 20.5681 101.056 20.4984 100.951 20.4461C100.708 20.3067 100.43 20.2196 100.152 20.1499C99.8573 20.0803 99.562 20.0454 99.2494 20.0454C98.7458 20.0454 98.2769 20.1325 97.8428 20.3242C97.4086 20.5158 97.0265 20.7597 96.6966 21.0908C96.3666 21.4218 96.1061 21.8051 95.9151 22.2232C95.724 22.6588 95.6372 23.1117 95.6372 23.617C95.6372 24.1222 95.724 24.5752 95.9151 25.0108C96.1061 25.4463 96.3666 25.8296 96.6966 26.1432C97.0265 26.4743 97.4086 26.7356 97.8428 26.9098C98.2769 27.1015 98.7458 27.1886 99.2494 27.1886C99.6489 27.1886 100.031 27.1363 100.378 27.0318C100.743 26.9272 101.073 26.7704 101.368 26.5962C101.455 26.5439 101.524 26.4743 101.577 26.3871C101.646 26.3 101.663 26.1955 101.663 26.0561V23.948C101.663 23.7738 101.611 23.6344 101.49 23.5125C101.438 23.4428 101.299 23.3905 101.125 23.3905Z" fill="white"/>
<path d="M107.307 20.2544C107.116 20.2544 106.96 20.3589 106.821 20.5506L105.206 22.92L103.487 20.5332C103.348 20.3415 103.191 20.2544 103 20.2544C102.862 20.2544 102.723 20.3067 102.584 20.4286C102.445 20.5332 102.375 20.69 102.375 20.8642C102.375 20.9339 102.393 21.0036 102.41 21.0732C102.445 21.1604 102.479 21.23 102.549 21.3172L104.581 24.035V26.5613C104.581 26.7355 104.633 26.8749 104.754 26.9794C104.876 27.1014 105.015 27.1536 105.171 27.1536C105.328 27.1536 105.449 27.1014 105.571 26.9794C105.692 26.8575 105.744 26.7181 105.744 26.5613V24.1744L107.794 21.23C107.828 21.1778 107.863 21.1081 107.88 21.0558C107.898 20.9861 107.898 20.9339 107.898 20.8816C107.898 20.7074 107.846 20.568 107.724 20.446C107.603 20.3067 107.464 20.2544 107.307 20.2544Z" fill="white"/>
<path d="M113.889 21.2299C113.594 20.8989 113.247 20.655 112.83 20.4633C112.431 20.2717 111.979 20.1846 111.493 20.1846C111.007 20.1846 110.572 20.2717 110.156 20.4633C109.756 20.655 109.409 20.8989 109.096 21.2299C108.801 21.5609 108.575 21.9268 108.402 22.3449C108.245 22.7631 108.158 23.2335 108.158 23.7213C108.158 24.2091 108.245 24.6621 108.402 25.0977C108.558 25.5158 108.801 25.8991 109.096 26.2127C109.391 26.5437 109.739 26.7876 110.156 26.9793C110.555 27.1709 111.007 27.258 111.493 27.258C111.979 27.258 112.413 27.1709 112.83 26.9793C113.229 26.7876 113.594 26.5437 113.889 26.2127C114.185 25.8817 114.41 25.5158 114.584 25.0977C114.74 24.6795 114.827 24.2091 114.827 23.7213C114.827 23.2335 114.74 22.7805 114.584 22.3449C114.41 21.9268 114.185 21.5435 113.889 21.2299ZM113.282 24.906C113.108 25.2545 112.865 25.5506 112.552 25.7597C112.24 25.9688 111.892 26.0733 111.493 26.0733C111.093 26.0733 110.729 25.9688 110.433 25.7597C110.121 25.5506 109.895 25.2719 109.721 24.906C109.548 24.5576 109.461 24.1569 109.461 23.7213C109.461 23.2683 109.548 22.885 109.721 22.5192C109.895 22.1707 110.138 21.892 110.433 21.6829C110.746 21.4738 111.093 21.3693 111.493 21.3693C111.892 21.3693 112.257 21.4738 112.552 21.6829C112.865 21.892 113.108 22.1707 113.282 22.5366C113.455 22.885 113.542 23.2857 113.542 23.7213C113.542 24.1569 113.455 24.5576 113.282 24.906Z" fill="white"/>
<path d="M120.801 20.272C120.628 20.272 120.506 20.3242 120.402 20.4462C120.298 20.5682 120.263 20.7075 120.263 20.8643V24.4185C120.263 24.7495 120.193 25.0283 120.037 25.2722C119.881 25.5161 119.69 25.6903 119.447 25.8297C119.204 25.9691 118.943 26.0213 118.665 26.0213C118.405 26.0213 118.162 25.9517 117.918 25.8297C117.693 25.7077 117.502 25.5161 117.363 25.2722C117.224 25.0283 117.154 24.7495 117.154 24.4185V20.8643C117.154 20.6901 117.102 20.5507 116.981 20.4462C116.859 20.3242 116.72 20.272 116.581 20.272C116.39 20.272 116.251 20.3242 116.13 20.4462C116.008 20.5682 115.956 20.7075 115.956 20.8643V24.4185C115.956 24.9586 116.078 25.4464 116.303 25.8645C116.529 26.2827 116.859 26.6137 117.259 26.8402C117.658 27.0841 118.144 27.1886 118.665 27.1886C119.186 27.1886 119.672 27.0667 120.072 26.8402C120.471 26.5963 120.801 26.2827 121.027 25.8645C121.253 25.4464 121.374 24.9586 121.374 24.4185V20.8643C121.374 20.6901 121.322 20.5507 121.218 20.4462C121.114 20.3417 120.975 20.272 120.801 20.272Z" fill="white"/>
<path d="M131.673 21.2299C131.377 20.8989 131.03 20.655 130.613 20.4633C130.214 20.2717 129.762 20.1846 129.276 20.1846C128.79 20.1846 128.356 20.2717 127.939 20.4633C127.539 20.655 127.192 20.8989 126.879 21.2299C126.584 21.5609 126.358 21.9268 126.185 22.3624C126.028 22.7805 125.942 23.2509 125.942 23.7387C125.942 24.2266 126.028 24.6795 126.185 25.1151C126.341 25.5332 126.584 25.9165 126.879 26.2301C127.175 26.5611 127.522 26.8051 127.939 26.9967C128.338 27.1883 128.79 27.2755 129.276 27.2755C129.762 27.2755 130.196 27.1883 130.613 26.9967C131.013 26.8225 131.377 26.5611 131.673 26.2301C131.968 25.8991 132.194 25.5332 132.367 25.1151C132.524 24.697 132.61 24.2266 132.61 23.7387C132.61 23.2509 132.524 22.7979 132.367 22.3624C132.211 21.9268 131.968 21.5435 131.673 21.2299ZM131.082 24.906C130.908 25.2545 130.665 25.5506 130.353 25.7597C130.04 25.9688 129.693 26.0733 129.293 26.0733C128.894 26.0733 128.529 25.9688 128.234 25.7597C127.921 25.5506 127.696 25.2719 127.522 24.906C127.348 24.5576 127.261 24.1569 127.261 23.7213C127.261 23.2683 127.348 22.885 127.522 22.5192C127.696 22.1707 127.939 21.892 128.234 21.6829C128.547 21.4738 128.894 21.3693 129.293 21.3693C129.693 21.3693 130.058 21.4738 130.353 21.6829C130.665 21.892 130.908 22.1707 131.082 22.5366C131.256 22.885 131.343 23.2857 131.343 23.7213C131.343 24.1569 131.256 24.5576 131.082 24.906Z" fill="white"/>
<path d="M139.105 26.1957C139.019 26.1435 138.967 26.0912 138.932 26.0041C138.897 25.917 138.88 25.8124 138.88 25.6905C138.862 25.5685 138.845 25.4291 138.828 25.2549C138.81 25.0807 138.776 24.9065 138.706 24.7671C138.637 24.6103 138.55 24.4709 138.428 24.3315C138.341 24.2444 138.237 24.1747 138.133 24.105C138.289 24.0179 138.428 23.9134 138.55 23.774C138.723 23.5824 138.862 23.3733 138.967 23.1294C139.071 22.8855 139.123 22.659 139.123 22.3977C139.123 21.9795 139.036 21.6136 138.845 21.3C138.654 20.9864 138.428 20.7425 138.133 20.5509C137.838 20.3767 137.525 20.2896 137.178 20.2896H134.364C134.191 20.2896 134.052 20.3418 133.93 20.4638C133.809 20.5857 133.757 20.7251 133.757 20.8993V26.579C133.757 26.7532 133.826 26.8926 133.965 26.9971C134.104 27.1191 134.278 27.1714 134.451 27.1714C134.608 27.1714 134.746 27.1191 134.833 26.9971C134.92 26.8752 134.972 26.7358 134.972 26.579V24.68H136.796C136.952 24.68 137.074 24.6974 137.195 24.7322C137.299 24.7671 137.404 24.8194 137.473 24.889C137.542 24.9587 137.595 25.0458 137.647 25.133C137.681 25.2201 137.699 25.3246 137.699 25.4466C137.699 25.795 137.734 26.0738 137.803 26.2828C137.872 26.4919 137.959 26.6661 138.063 26.8055C138.168 26.9275 138.289 27.032 138.393 27.1017C138.463 27.1365 138.55 27.1714 138.671 27.1888C138.776 27.2062 138.897 27.2062 139.001 27.1888C139.105 27.1714 139.21 27.1191 139.279 27.032C139.383 26.91 139.435 26.7707 139.383 26.6139C139.349 26.4048 139.244 26.2828 139.105 26.1957ZM137.716 23.0423C137.647 23.2339 137.56 23.3733 137.438 23.4778C137.334 23.5824 137.213 23.6346 137.091 23.6346H134.955V21.4046H137.091C137.265 21.4046 137.438 21.5091 137.577 21.7008C137.734 21.8924 137.803 22.1363 137.803 22.4151C137.82 22.6416 137.786 22.8506 137.716 23.0423Z" fill="white"/>
<path d="M145.826 23.6168C145.722 23.4948 145.583 23.4425 145.41 23.4425H143.794C143.621 23.4425 143.482 23.4948 143.36 23.6168C143.239 23.7213 143.187 23.8607 143.187 24.0349C143.187 24.2091 143.239 24.3485 143.36 24.453C143.482 24.5576 143.621 24.6273 143.794 24.6273H144.715V25.8991C144.576 25.9514 144.42 25.9862 144.229 26.0211C143.985 26.0559 143.777 26.0733 143.586 26.0733C143.169 26.0733 142.77 25.9688 142.422 25.7597C142.075 25.5506 141.797 25.2545 141.589 24.906C141.38 24.5402 141.276 24.1569 141.276 23.7213C141.276 23.2857 141.38 22.9025 141.589 22.5366C141.797 22.1881 142.075 21.892 142.422 21.6829C142.77 21.4738 143.152 21.3693 143.586 21.3693C143.794 21.3693 143.985 21.3867 144.159 21.4216C144.35 21.4564 144.506 21.5087 144.68 21.5958C144.732 21.6306 144.784 21.648 144.836 21.648C144.889 21.6655 144.941 21.6655 144.993 21.6655C145.149 21.6655 145.288 21.5958 145.392 21.4738C145.496 21.3519 145.548 21.2125 145.548 21.0557C145.548 20.9686 145.531 20.8815 145.479 20.7944C145.427 20.7072 145.357 20.6376 145.253 20.5853C145.01 20.4459 144.75 20.3588 144.454 20.2891C144.159 20.2194 143.864 20.1846 143.569 20.1846C143.065 20.1846 142.614 20.2717 142.179 20.4633C141.745 20.655 141.363 20.8989 141.051 21.2299C140.721 21.5609 140.46 21.9268 140.286 22.3624C140.095 22.7805 140.009 23.2509 140.009 23.7387C140.009 24.2266 140.095 24.6795 140.286 25.1151C140.477 25.5332 140.721 25.9165 141.051 26.2301C141.38 26.5611 141.763 26.8051 142.179 26.9967C142.614 27.1883 143.065 27.2755 143.569 27.2755C143.968 27.2755 144.333 27.2232 144.68 27.1187C145.027 27.0141 145.357 26.8573 145.67 26.6831C145.739 26.6308 145.826 26.5611 145.878 26.474C145.948 26.3869 145.965 26.2824 145.965 26.143V24.0698C146 23.8781 145.931 23.7387 145.826 23.6168Z" fill="white"/>
<path d="M123.788 25.0806C123.198 25.0806 122.711 25.5684 122.711 26.1608C122.711 26.7531 123.198 27.2409 123.788 27.2409C124.379 27.2409 124.865 26.7531 124.865 26.1608C124.865 25.5684 124.379 25.0806 123.788 25.0806Z" fill="white"/>
<path d="M51.6305 39.9071C52.1515 40.5692 52.3946 41.4229 52.3946 42.4682C52.3946 44.2976 51.8736 45.5694 50.8316 46.3011C49.7896 47.0329 48.5392 47.3813 47.0978 47.3813H41.3669C40.9675 47.3813 40.6375 47.2419 40.3596 46.9806C40.0818 46.7193 39.9602 46.3708 39.9602 45.9701V32.6246C39.9602 32.2239 40.0991 31.8929 40.3596 31.6141C40.6201 31.3528 40.9675 31.2134 41.3669 31.2134H47.1673C50.0849 31.2134 51.5436 32.5897 51.5436 35.3251C51.5436 36.0219 51.3873 36.6317 51.0574 37.1544C50.7274 37.6771 50.2585 38.1126 49.6507 38.4088C50.4496 38.7572 51.1095 39.2451 51.6305 39.9071ZM48.0877 34.4365C47.7751 34.1229 47.341 33.9661 46.7679 33.9661H42.9646V37.5725H46.8373C47.3062 37.5725 47.7057 37.4157 48.053 37.1021C48.4003 36.7885 48.574 36.3704 48.574 35.8477C48.5566 35.2205 48.4003 34.7501 48.0877 34.4365ZM48.7997 44.1582C49.1992 43.7749 49.4076 43.2174 49.4076 42.4682C49.4076 41.5622 49.1644 40.9699 48.6955 40.6911C48.2266 40.4124 47.6362 40.273 46.9415 40.273H42.9646V44.7331H47.0978C47.8272 44.7331 48.3829 44.5415 48.7997 44.1582Z" fill="white"/>
<path d="M67.4514 31.5965C67.6945 31.8579 67.8161 32.1889 67.8161 32.607V40.9697C67.8161 42.2416 67.5556 43.374 67.0172 44.3671C66.4789 45.3427 65.7321 46.1267 64.7596 46.6668C63.7871 47.2069 62.693 47.5031 61.4426 47.5031C60.1922 47.5031 59.0981 47.2244 58.1256 46.6668C57.1531 46.1093 56.3889 45.3427 55.868 44.3671C55.3296 43.374 55.0691 42.259 55.0691 40.9697V32.607C55.0691 32.2063 55.208 31.8753 55.4859 31.5965C55.7637 31.3352 56.1111 31.1958 56.5452 31.1958C56.9099 31.1958 57.2399 31.3352 57.5178 31.5965C57.7956 31.8579 57.9346 32.2063 57.9346 32.607V40.9697C57.9346 41.7015 58.0909 42.3635 58.4208 42.9385C58.7508 43.5134 59.1849 43.9664 59.7233 44.2626C60.2617 44.5762 60.8521 44.733 61.4773 44.733C62.1372 44.733 62.7624 44.5762 63.3355 44.2626C63.9086 43.9489 64.3775 43.5134 64.7075 42.9385C65.0548 42.3635 65.2285 41.7015 65.2285 40.9697V32.607C65.2285 32.1889 65.35 31.8579 65.5758 31.5965C65.8016 31.3352 66.1142 31.1958 66.5136 31.1958C66.8783 31.2132 67.1909 31.3352 67.4514 31.5965Z" fill="white"/>
<path d="M73.2691 47.207C72.4182 46.9282 71.6019 46.4578 70.8552 45.7958C70.4384 45.4299 70.23 45.0118 70.23 44.5762C70.23 44.2278 70.3515 43.9142 70.612 43.6354C70.8725 43.3741 71.1851 43.2347 71.5498 43.2347C71.8451 43.2347 72.1056 43.3218 72.3313 43.5135C72.9392 44.0187 73.547 44.3846 74.1201 44.6285C74.7105 44.855 75.3878 44.9769 76.1867 44.9769C77.0376 44.9769 77.7844 44.7853 78.4096 44.402C79.0348 44.0187 79.3474 43.5483 79.3474 42.9734C79.3474 42.2765 79.0348 41.7364 78.427 41.3531C77.8191 40.9524 76.8466 40.6562 75.5094 40.4645C72.1577 39.9767 70.4731 38.4087 70.4731 35.7605C70.4731 34.7849 70.7336 33.9486 71.2372 33.2343C71.7409 32.52 72.4355 31.9799 73.3039 31.5966C74.1722 31.2133 75.1447 31.0391 76.2214 31.0391C77.1939 31.0391 78.097 31.1784 78.948 31.4746C79.7989 31.7708 80.5109 32.1541 81.0667 32.6245C81.5182 32.9729 81.7266 33.3911 81.7266 33.8441C81.7266 34.1925 81.5877 34.5061 81.3272 34.7849C81.0667 35.0462 80.7541 35.1856 80.4067 35.1856C80.181 35.1856 79.9726 35.1159 79.7815 34.9765C79.3821 34.6455 78.8264 34.3493 78.1144 34.088C77.4023 33.8266 76.7598 33.6873 76.1867 33.6873C75.2142 33.6873 74.4674 33.8615 73.9464 34.2274C73.408 34.5932 73.1476 35.0636 73.1476 35.6386C73.1476 36.3006 73.4254 36.8059 73.9638 37.1369C74.5021 37.4679 75.3705 37.7467 76.534 37.9732C77.8539 38.1996 78.9132 38.4958 79.6947 38.8617C80.4762 39.2276 81.084 39.7154 81.4835 40.3426C81.8829 40.9698 82.0739 41.7886 82.0739 42.8166C82.0739 43.7922 81.7961 44.6285 81.2577 45.3602C80.7193 46.092 79.9899 46.6495 79.0869 47.0502C78.1838 47.4509 77.2113 47.6425 76.1693 47.6425C75.11 47.6251 74.1201 47.4857 73.2691 47.207Z" fill="white"/>
<path d="M87.2145 46.9806C86.9193 47.2419 86.5893 47.3813 86.2073 47.3813C85.7905 47.3813 85.4605 47.2419 85.1826 46.9806C84.9048 46.7193 84.7832 46.3708 84.7832 45.9701V32.6246C84.7832 32.2239 84.9221 31.8929 85.2 31.6141C85.4779 31.3528 85.8252 31.2134 86.2594 31.2134C86.6414 31.2134 86.9714 31.3528 87.2492 31.6141C87.5271 31.8754 87.666 32.2239 87.666 32.6246V45.9701C87.6487 46.3882 87.4924 46.7193 87.2145 46.9806Z" fill="white"/>
<path d="M104.216 31.5963C104.442 31.8402 104.564 32.1539 104.564 32.5197V45.9698C104.564 46.3705 104.425 46.7015 104.164 46.9803C103.904 47.259 103.556 47.381 103.157 47.381C102.948 47.381 102.723 47.3461 102.532 47.2764C102.323 47.2067 102.167 47.1196 102.08 46.9803L93.64 36.2307V46.0917C93.64 46.4576 93.5184 46.7712 93.2927 47.0151C93.0495 47.259 92.7369 47.381 92.3549 47.381C91.9902 47.381 91.695 47.259 91.4518 47.0151C91.2261 46.7712 91.1045 46.4576 91.1045 46.0917V32.6417C91.1045 32.241 91.2434 31.9099 91.5039 31.6312C91.7644 31.3698 92.1118 31.2305 92.5112 31.2305C92.7369 31.2305 92.9627 31.2827 93.1885 31.3698C93.4142 31.457 93.5705 31.5789 93.6747 31.7357L102.045 42.4504V32.5197C102.045 32.1539 102.167 31.8402 102.393 31.5963C102.618 31.3524 102.931 31.2305 103.296 31.2305C103.678 31.2305 103.973 31.3524 104.216 31.5963Z" fill="white"/>
<path d="M118.109 45.1338C118.37 45.3952 118.509 45.7088 118.509 46.0746C118.509 46.4579 118.37 46.7715 118.109 47.0154C117.849 47.2593 117.501 47.3813 117.102 47.3813H109.409C109.009 47.3813 108.679 47.2419 108.401 46.9806C108.124 46.7193 108.002 46.3708 108.002 45.9701V32.6246C108.002 32.2239 108.141 31.8929 108.401 31.6141C108.662 31.3528 109.009 31.2134 109.409 31.2134H117.119C117.519 31.2134 117.849 31.3353 118.127 31.5967C118.387 31.858 118.526 32.1716 118.526 32.5723C118.526 32.9556 118.404 33.2692 118.127 33.5131C117.866 33.757 117.536 33.879 117.119 33.879H110.885V37.799H116.077C116.477 37.799 116.807 37.921 117.085 38.1823C117.345 38.4436 117.484 38.7573 117.484 39.158C117.484 39.5413 117.362 39.8549 117.085 40.0988C116.824 40.3427 116.494 40.4646 116.077 40.4646H110.885V44.7331H117.119C117.519 44.7331 117.849 44.8725 118.109 45.1338Z" fill="white"/>
<path d="M123.406 47.207C122.555 46.9282 121.739 46.4578 120.992 45.7958C120.575 45.4299 120.367 45.0118 120.367 44.5762C120.367 44.2278 120.489 43.9142 120.749 43.6354C121.01 43.3741 121.322 43.2347 121.687 43.2347C121.982 43.2347 122.243 43.3218 122.468 43.5135C123.076 44.0187 123.684 44.3846 124.257 44.6285C124.847 44.855 125.525 44.9769 126.324 44.9769C127.175 44.9769 127.921 44.7853 128.547 44.402C129.172 44.0187 129.484 43.5483 129.484 42.9734C129.484 42.2765 129.172 41.7364 128.564 41.3531C127.956 40.9524 126.984 40.6562 125.646 40.4645C122.295 39.9767 120.61 38.4087 120.61 35.7605C120.61 34.7849 120.871 33.9486 121.374 33.2343C121.878 32.52 122.572 31.9799 123.441 31.5966C124.309 31.2133 125.282 31.0391 126.358 31.0391C127.331 31.0391 128.234 31.1784 129.085 31.4746C129.936 31.7708 130.648 32.1541 131.204 32.6245C131.655 32.9729 131.864 33.3911 131.864 33.8441C131.864 34.1925 131.725 34.5061 131.464 34.7849C131.204 35.0462 130.891 35.1856 130.544 35.1856C130.318 35.1856 130.11 35.1159 129.919 34.9765C129.519 34.6455 128.963 34.3493 128.251 34.088C127.539 33.8266 126.897 33.6873 126.324 33.6873C125.351 33.6873 124.604 33.8615 124.083 34.2274C123.545 34.5932 123.285 35.0636 123.285 35.6386C123.285 36.3006 123.562 36.8059 124.101 37.1369C124.639 37.4679 125.507 37.7467 126.671 37.9732C127.991 38.1996 129.05 38.4958 129.832 38.8617C130.613 39.2276 131.221 39.7154 131.62 40.3426C132.02 40.9698 132.211 41.7886 132.211 42.8166C132.211 43.7922 131.933 44.6285 131.395 45.3602C130.856 46.092 130.127 46.6495 129.224 47.0502C128.321 47.4509 127.348 47.6425 126.306 47.6425C125.247 47.6251 124.257 47.4857 123.406 47.207Z" fill="white"/>
<path d="M137.143 47.207C136.292 46.9282 135.476 46.4578 134.729 45.7958C134.312 45.4299 134.104 45.0118 134.104 44.5762C134.104 44.2278 134.226 43.9142 134.486 43.6354C134.747 43.3741 135.059 43.2347 135.424 43.2347C135.719 43.2347 135.98 43.3218 136.205 43.5135C136.813 44.0187 137.421 44.3846 137.994 44.6285C138.585 44.855 139.262 44.9769 140.061 44.9769C140.912 44.9769 141.658 44.7853 142.284 44.402C142.909 44.0187 143.221 43.5483 143.221 42.9734C143.221 42.2765 142.909 41.7364 142.301 41.3531C141.693 40.9524 140.721 40.6562 139.383 40.4645C136.032 39.9767 134.347 38.4087 134.347 35.7605C134.347 34.7849 134.608 33.9486 135.111 33.2343C135.615 32.52 136.31 31.9799 137.178 31.5966C138.046 31.2133 139.019 31.0391 140.095 31.0391C141.068 31.0391 141.971 31.1784 142.822 31.4746C143.673 31.7708 144.385 32.1541 144.941 32.6245C145.392 32.9729 145.601 33.3911 145.601 33.8441C145.601 34.1925 145.462 34.5061 145.201 34.7849C144.941 35.0462 144.628 35.1856 144.281 35.1856C144.055 35.1856 143.847 35.1159 143.656 34.9765C143.256 34.6455 142.7 34.3493 141.988 34.088C141.276 33.8266 140.634 33.6873 140.061 33.6873C139.088 33.6873 138.341 33.8615 137.82 34.2274C137.282 34.5932 137.022 35.0636 137.022 35.6386C137.022 36.3006 137.299 36.8059 137.838 37.1369C138.376 37.4679 139.244 37.7467 140.408 37.9732C141.728 38.1996 142.787 38.4958 143.569 38.8617C144.35 39.2276 144.958 39.7154 145.357 40.3426C145.757 40.9698 145.948 41.7886 145.948 42.8166C145.948 43.7922 145.67 44.6285 145.132 45.3602C144.593 46.092 143.864 46.6495 142.961 47.0502C142.058 47.4509 141.085 47.6425 140.043 47.6425C138.984 47.6251 137.994 47.4857 137.143 47.207Z" fill="white"/>
<path d="M52.3601 52.5731C52.5858 52.7995 52.69 53.0957 52.69 53.4442V66.1625C52.69 66.5458 52.5685 66.8594 52.308 67.1033C52.0475 67.3646 51.7349 67.4866 51.3702 67.4866C51.1618 67.4866 50.9707 67.4517 50.7797 67.382C50.5887 67.3124 50.4497 67.2252 50.3629 67.1033L42.3917 56.9461V66.267C42.3917 66.6155 42.2875 66.9116 42.0617 67.1381C41.836 67.3646 41.5407 67.4866 41.176 67.4866C40.8287 67.4866 40.5508 67.3646 40.3251 67.1381C40.0993 66.9116 39.9951 66.6155 39.9951 66.267V53.5487C39.9951 53.1654 40.1167 52.8518 40.3772 52.6079C40.6377 52.3466 40.9503 52.2246 41.315 52.2246C41.5407 52.2246 41.7491 52.2595 41.9575 52.3466C42.1659 52.4337 42.3222 52.5556 42.4264 52.695L50.3455 62.8174V53.4442C50.3455 53.0957 50.4497 52.7995 50.6755 52.5731C50.9013 52.3466 51.1791 52.2246 51.5438 52.2246C51.8564 52.2246 52.1517 52.3291 52.3601 52.5731Z" fill="white"/>
<path d="M65.5064 65.361C65.7669 65.6224 65.8884 65.9011 65.8884 66.2496C65.8884 66.6155 65.7669 66.9116 65.5064 67.1381C65.2459 67.3646 64.9333 67.4866 64.5686 67.4866H57.292C56.91 67.4866 56.5974 67.3646 56.3542 67.1033C56.0937 66.8419 55.9722 66.5283 55.9722 66.1625V53.5487C55.9722 53.1654 56.0937 52.8518 56.3542 52.6079C56.6147 52.3466 56.9273 52.2246 57.292 52.2246H64.5686C64.9506 52.2246 65.2632 52.3466 65.5064 52.5905C65.7669 52.8344 65.8884 53.148 65.8884 53.5139C65.8884 53.8797 65.7669 54.1759 65.5237 54.4024C65.2806 54.6289 64.968 54.7334 64.5686 54.7334H58.6813V58.4444H63.5961C63.9781 58.4444 64.2907 58.5663 64.5338 58.8102C64.7943 59.0542 64.9159 59.3678 64.9159 59.7336C64.9159 60.0995 64.7943 60.3957 64.5512 60.6222C64.3081 60.8487 63.9955 60.9532 63.5961 60.9532H58.6813V64.9952H64.5686C64.9333 64.9778 65.2459 65.0997 65.5064 65.361Z" fill="white"/>
<path d="M79.3476 52.5731C79.5907 52.7995 79.7123 53.1131 79.7123 53.4964C79.7123 53.8797 79.5907 54.1759 79.3476 54.4024C79.1045 54.6289 78.7745 54.7334 78.3924 54.7334H74.9712V66.1625C74.9712 66.5458 74.8323 66.8594 74.5544 67.1033C74.2766 67.3646 73.9466 67.4866 73.5298 67.4866C73.1304 67.4866 72.7831 67.3646 72.5226 67.1033C72.2621 66.8419 72.1231 66.5283 72.1231 66.1625V54.7334H68.7019C68.3025 54.7334 67.9899 54.6115 67.7468 54.385C67.5036 54.1585 67.3821 53.8449 67.3821 53.4616C67.3821 53.0957 67.5036 52.7995 67.7641 52.5731C68.0246 52.3466 68.3372 52.2246 68.7019 52.2246H78.3577C78.7745 52.2246 79.0871 52.3291 79.3476 52.5731Z" fill="white"/>
<path d="M100.292 52.5555C100.587 52.8168 100.743 53.1653 100.743 53.566C100.743 53.6879 100.726 53.8447 100.674 54.0015L96.3841 66.6502C96.2973 66.8941 96.141 67.0857 95.9326 67.2425C95.7242 67.3993 95.4811 67.469 95.2206 67.4864C94.9601 67.4864 94.717 67.4167 94.4738 67.2599C94.2481 67.1206 94.057 66.9115 93.9355 66.6327L90.8442 59.5941L87.7356 66.6327C87.5967 66.9115 87.423 67.1206 87.1973 67.2599C86.9715 67.3993 86.711 67.4864 86.4505 67.4864C86.19 67.469 85.9469 67.3993 85.7385 67.2425C85.5301 67.0857 85.3738 66.8941 85.287 66.6502L80.9974 54.0015C80.9627 53.8447 80.928 53.6879 80.928 53.566C80.928 53.1653 81.0843 52.8168 81.3795 52.5555C81.6747 52.2942 82.0047 52.1548 82.3694 52.1548C82.6646 52.1548 82.9251 52.2245 83.1509 52.3813C83.3766 52.5381 83.5503 52.7471 83.6372 53.0085L86.8847 62.8695L89.7154 56.0574C89.837 55.7961 89.9933 55.587 90.219 55.4302C90.4448 55.2734 90.6879 55.2037 90.9658 55.2211C91.2437 55.2037 91.4868 55.2734 91.6952 55.4302C91.9036 55.587 92.0599 55.7961 92.1815 56.0574L94.8559 62.7998L98.0687 53.0085C98.1555 52.7471 98.3118 52.5381 98.555 52.3813C98.7981 52.2245 99.0586 52.1548 99.3538 52.1548C99.6664 52.1548 99.9964 52.2942 100.292 52.5555Z" fill="white"/>
<path d="M115.643 63.8105C115.001 65.0127 114.133 65.9535 113.004 66.6504C111.875 67.3473 110.625 67.6957 109.218 67.6957C107.811 67.6957 106.543 67.3473 105.432 66.6504C104.303 65.9535 103.435 65.0127 102.81 63.8105C102.184 62.6084 101.872 61.2843 101.872 59.8557C101.872 58.4096 102.184 57.1029 102.81 55.9008C103.435 54.6987 104.32 53.7579 105.432 53.061C106.561 52.3641 107.811 52.0156 109.218 52.0156C110.625 52.0156 111.892 52.3641 113.004 53.061C114.133 53.7579 115.001 54.6987 115.643 55.9008C116.286 57.1029 116.599 58.427 116.599 59.8557C116.599 61.2843 116.286 62.6084 115.643 63.8105ZM113.195 57.2075C112.795 56.4235 112.257 55.7788 111.562 55.3259C110.868 54.8555 110.086 54.629 109.218 54.629C108.332 54.629 107.551 54.8555 106.856 55.3084C106.161 55.7614 105.64 56.3886 105.241 57.1901C104.859 57.9915 104.668 58.88 104.668 59.8557C104.668 60.8313 104.859 61.7199 105.241 62.5213C105.623 63.3227 106.161 63.9499 106.856 64.4029C107.551 64.8559 108.332 65.0824 109.218 65.0824C110.086 65.0824 110.868 64.8559 111.562 64.3855C112.257 63.9151 112.795 63.2879 113.195 62.5039C113.594 61.7199 113.785 60.8313 113.785 59.8557C113.768 58.88 113.577 57.9915 113.195 57.2075Z" fill="white"/>
<path d="M131.482 65.8142C131.586 66.0058 131.638 66.1975 131.638 66.4065C131.638 66.6679 131.551 66.9118 131.377 67.1209C131.152 67.3822 130.822 67.5216 130.37 67.5216C130.023 67.5216 129.71 67.4345 129.415 67.2777C128.373 66.6853 127.852 65.4657 127.852 63.6364C127.852 63.1137 127.678 62.6956 127.348 62.3994C127.001 62.0858 126.515 61.9464 125.872 61.9464H121.809V66.1801C121.809 66.5808 121.704 66.8944 121.496 67.1383C121.288 67.3822 121.01 67.5042 120.662 67.5042C120.246 67.5042 119.881 67.3822 119.568 67.1209C119.256 66.8595 119.099 66.5459 119.099 66.1801V53.5663C119.099 53.183 119.221 52.8694 119.481 52.6255C119.742 52.3641 120.055 52.2422 120.419 52.2422H126.689C127.435 52.2422 128.147 52.4513 128.825 52.852C129.485 53.2527 130.023 53.8276 130.422 54.5245C130.822 55.2388 131.013 56.0403 131.013 56.9288C131.013 57.6605 130.822 58.3574 130.422 59.0543C130.023 59.7512 129.519 60.2913 128.894 60.692C129.814 61.3366 130.301 62.1903 130.388 63.2705C130.44 63.497 130.457 63.7235 130.457 63.95C130.509 64.403 130.579 64.7166 130.631 64.9256C130.683 65.1173 130.822 65.2741 131.03 65.3786C131.221 65.4657 131.377 65.6225 131.482 65.8142ZM127.348 59.3157C127.592 59.0717 127.8 58.7407 127.956 58.3226C128.113 57.9044 128.199 57.4689 128.199 56.9811C128.199 56.5803 128.113 56.1971 127.956 55.866C127.8 55.5176 127.592 55.2562 127.348 55.0472C127.105 54.8381 126.845 54.7336 126.584 54.7336H121.826V59.6815H126.584C126.845 59.6815 127.088 59.5596 127.348 59.3157Z" fill="white"/>
<path d="M145.913 65.64C145.965 65.8142 146 65.971 146 66.1104C146 66.5111 145.844 66.8247 145.549 67.0861C145.253 67.3474 144.906 67.4868 144.524 67.4868C144.333 67.4868 144.159 67.4519 143.986 67.3648C143.812 67.2777 143.673 67.1557 143.551 66.9989L138.828 60.7618L136.761 62.7479V66.1801C136.761 66.5808 136.64 66.8944 136.379 67.1383C136.119 67.3822 135.789 67.5042 135.389 67.5042C134.99 67.5042 134.677 67.3822 134.417 67.1209C134.156 66.8596 134.035 66.546 134.035 66.1801V53.5663C134.035 53.183 134.156 52.8694 134.434 52.6255C134.695 52.3642 135.025 52.2422 135.441 52.2422C135.841 52.2422 136.153 52.3642 136.397 52.6081C136.64 52.852 136.761 53.183 136.761 53.5663V59.5073L143.725 52.6429C144.055 52.3119 144.42 52.1377 144.785 52.1377C145.114 52.1377 145.392 52.2771 145.635 52.5558C145.861 52.8346 145.983 53.1308 145.983 53.4269C145.983 53.7231 145.844 54.0193 145.583 54.2806L140.842 58.8104L145.688 65.2393C145.774 65.3264 145.844 65.4832 145.913 65.64Z" fill="white"/>
</g>
<defs>
<clipPath id="clip0_17_1892">
<rect width="146" height="83" fill="white" transform="translate(0 0.0273438)"/>
</clipPath>
</defs>
</svg>
