<svg width="80" height="64" viewBox="0 0 80 64" fill="none" xmlns="http://www.w3.org/2000/svg">
<g clip-path="url(#clip0_12_6971)">
<path d="M25.2113 63.5C27.9755 63.5 30.2163 61.2757 30.2163 58.5319C30.2163 55.7881 27.9755 53.5638 25.2113 53.5638C22.4471 53.5638 20.2063 55.7881 20.2063 58.5319C20.2063 61.2757 22.4471 63.5 25.2113 63.5Z" fill="#F7D90D"/>
<path d="M11.7672 54.4358C16.9206 54.4358 21.0983 50.2889 21.0983 45.1735C21.0983 40.058 16.9206 35.9111 11.7672 35.9111C6.61372 35.9111 2.43604 40.058 2.43604 45.1735C2.43604 50.2889 6.61372 54.4358 11.7672 54.4358Z" fill="#FF8C14"/>
<path d="M10.9018 31.3129C16.9227 31.3129 21.8036 26.468 21.8036 20.4914C21.8036 14.5148 16.9227 9.66989 10.9018 9.66989C4.88091 9.66989 0 14.5148 0 20.4914C0 26.468 4.88091 31.3129 10.9018 31.3129Z" fill="#EB739C"/>
<path d="M28.1663 13.1053C31.673 13.1053 34.5157 10.2835 34.5157 6.80265C34.5157 3.32179 31.673 0.5 28.1663 0.5C24.6596 0.5 21.8169 3.32179 21.8169 6.80265C21.8169 10.2835 24.6596 13.1053 28.1663 13.1053Z" fill="#5CBAD1"/>
<path d="M41.6372 9.68309C43.2398 9.68309 44.539 8.39347 44.539 6.80264C44.539 5.21181 43.2398 3.92219 41.6372 3.92219C40.0345 3.92219 38.7354 5.21181 38.7354 6.80264C38.7354 8.39347 40.0345 9.68309 41.6372 9.68309Z" fill="#BADE66"/>
<path d="M33.7037 49.2563C31.96 48.7014 30.3227 47.7632 28.7919 46.4287C27.9533 45.6888 27.5273 44.8696 27.5273 43.9711C27.5273 43.2576 27.7936 42.6366 28.3127 42.0948C28.8451 41.5531 29.4841 41.2888 30.2295 41.2888C30.8285 41.2888 31.3476 41.4738 31.8135 41.8438C33.0648 42.8612 34.2761 43.6011 35.4608 44.0768C36.6455 44.5392 38.0432 44.7771 39.6671 44.7771C41.4109 44.7771 42.915 44.3939 44.1796 43.6143C45.4442 42.848 46.0698 41.8834 46.0698 40.7339C46.0698 39.3465 45.4442 38.2498 44.1929 37.4702C42.955 36.6774 40.9716 36.0829 38.2561 35.6865C31.4408 34.6955 28.0199 31.5376 28.0199 26.2259C28.0199 24.2836 28.539 22.5923 29.564 21.1521C30.5889 19.7118 31.9999 18.6151 33.7703 17.862C35.5407 17.1089 37.524 16.7257 39.707 16.7257C41.6638 16.7257 43.514 17.0164 45.2445 17.611C46.9749 18.1923 48.4125 18.9719 49.5573 19.9365C50.4625 20.65 50.915 21.4692 50.915 22.3941C50.915 23.1076 50.6488 23.7286 50.1164 24.2704C49.5839 24.8121 48.9583 25.0764 48.2395 25.0764C47.7736 25.0764 47.3476 24.931 46.9749 24.6535C46.163 24.0061 45.0315 23.4115 43.5939 22.8698C42.143 22.328 40.8385 22.0638 39.6937 22.0638C37.737 22.0638 36.2062 22.4337 35.1413 23.1605C34.0631 23.8872 33.5307 24.8385 33.5307 26.0145C33.5307 27.349 34.0764 28.3532 35.1946 29.0271C36.2994 29.7009 38.0298 30.2691 40.3992 30.6919C43.0748 31.1544 45.2179 31.749 46.8285 32.4757C48.4258 33.2024 49.6372 34.1934 50.4491 35.4486C51.2611 36.7039 51.6605 38.3687 51.6605 40.43C51.6605 42.3855 51.1147 44.09 49.9966 45.5566C48.8917 47.0233 47.4142 48.1596 45.5773 48.9392C43.7403 49.7188 41.757 50.1284 39.6405 50.1284C37.4308 50.102 35.4342 49.8113 33.7037 49.2563Z" fill="white"/>
<path d="M79.4808 21.6145L69.7238 35.475V46.7854C69.7238 47.5914 69.4576 48.2653 68.9251 48.807C68.3927 49.3488 67.7537 49.613 67.0083 49.613C66.2229 49.613 65.5707 49.3488 65.0249 48.807C64.4792 48.2653 64.213 47.5914 64.213 46.7854V34.8144L54.4958 22.0109C53.9368 21.271 53.6572 20.5443 53.6572 19.8307C53.6572 19.0248 53.9767 18.3509 54.6156 17.8091C55.2546 17.2674 55.9334 17.0032 56.6522 17.0032C57.5308 17.0032 58.2895 17.4392 58.9417 18.298L67.168 29.5688L74.8752 18.3905C75.5274 17.4656 76.2995 17.0032 77.2046 17.0032C77.9501 17.0032 78.6023 17.2806 79.1614 17.8356C79.7204 18.3905 80 19.0776 80 19.8836C80 20.531 79.8269 21.0992 79.4808 21.6145Z" fill="white"/>
</g>
<defs>
<clipPath id="clip0_12_6971">
<rect width="80" height="63" fill="white" transform="translate(0 0.5)"/>
</clipPath>
</defs>
</svg>
