<?xml version="1.0" encoding="UTF-8" standalone="no"?>
<!-- Created with Inkscape (http://www.inkscape.org/) -->

<svg
   width="172.09624"
   height="79.999992"
   viewBox="0 0 45.533798 21.16667"
   version="1.1"
   id="svg4038"
   sodipodi:docname="logo.svg"
   inkscape:version="1.4.2 (ebf0e940d0, 2025-05-08)"
   xmlns:inkscape="http://www.inkscape.org/namespaces/inkscape"
   xmlns:sodipodi="http://sodipodi.sourceforge.net/DTD/sodipodi-0.dtd"
   xmlns="http://www.w3.org/2000/svg"
   xmlns:svg="http://www.w3.org/2000/svg">
  <sodipodi:namedview
     id="namedview52"
     pagecolor="#ffffff"
     bordercolor="#666666"
     borderopacity="1.0"
     inkscape:pageshadow="2"
     inkscape:pageopacity="0.0"
     inkscape:pagecheckerboard="true"
     showgrid="false"
     inkscape:zoom="4.1515177"
     inkscape:cx="48.416028"
     inkscape:cy="40.105814"
     inkscape:window-width="1916"
     inkscape:window-height="994"
     inkscape:window-x="26"
     inkscape:window-y="23"
     inkscape:window-maximized="0"
     inkscape:current-layer="layer4"
     inkscape:showpageshadow="2"
     inkscape:deskcolor="#d1d1d1" />
  <defs
     id="defs4035">
    <clipPath
       clipPathUnits="userSpaceOnUse"
       id="clipPath4152">
      <path
         d="M 0,100 H 200 V 0 H 0 Z"
         id="path4150" />
    </clipPath>
  </defs>
  <g
     inkscape:groupmode="layer"
     id="layer3"
     inkscape:label="Circles"
     style="display:inline"
     transform="translate(-5.6917278,-2.6458331)">
    <path
       d="M 0,0 C 1.062,1.829 0.439,4.173 -1.39,5.234 -3.219,6.296 -5.563,5.674 -6.625,3.844 -7.686,2.015 -7.064,-0.329 -5.234,-1.39 -3.405,-2.452 -1.062,-1.83 0,0"
       style="fill:#b9de67;fill-opacity:1;fill-rule:nonzero;stroke:none"
       id="path4236"
       transform="matrix(0.25125547,0,0,-0.25125547,20.323219,5.2338665)"
       inkscape:export-filename="/home/jchlu/Projects/supportingyou/assets/circles.png"
       inkscape:export-xdpi="96"
       inkscape:export-ydpi="96" />
    <path
       d="M 0,0 C 3.819,2.612 4.797,7.825 2.185,11.644 -0.427,15.463 -5.641,16.441 -9.459,13.829 -13.278,11.217 -14.256,6.003 -11.645,2.185 -9.032,-1.634 -3.819,-2.612 0,0"
       style="fill:#5db9d2;fill-opacity:1;fill-rule:nonzero;stroke:none"
       id="path4232"
       transform="matrix(0.25125547,0,0,-0.25125547,16.214564,6.4881841)"
       inkscape:export-filename="/home/jchlu/Projects/supportingyou/assets/circles.png"
       inkscape:export-xdpi="96"
       inkscape:export-ydpi="96" />
    <path
       d="M 0,0 C 6.558,4.485 8.237,13.437 3.752,19.995 -0.733,26.552 -9.686,28.231 -16.243,23.746 -22.8,19.261 -24.48,10.309 -19.995,3.751 -15.509,-2.806 -6.557,-4.485 0,0"
       style="fill:#eb729c;fill-opacity:1;fill-rule:nonzero;stroke:none"
       id="path4228"
       transform="matrix(0.25125547,0,0,-0.25125547,11.346967,12.302261)"
       inkscape:export-filename="/home/jchlu/Projects/supportingyou/assets/circles.png"
       inkscape:export-xdpi="96"
       inkscape:export-ydpi="96" />
    <path
       d="M 0,0 C 5.613,3.839 7.051,11.501 3.211,17.114 -0.628,22.728 -8.291,24.165 -13.903,20.325 -19.516,16.486 -20.954,8.824 -17.115,3.211 -13.275,-2.401 -5.613,-3.84 0,0"
       style="fill:#ff8c15;fill-opacity:1;fill-rule:nonzero;stroke:none"
       id="path4224"
       transform="matrix(0.25125547,0,0,-0.25125547,11.33654,20.114748)"
       inkscape:export-filename="/home/jchlu/Projects/supportingyou/assets/circles.png"
       inkscape:export-xdpi="96"
       inkscape:export-ydpi="96" />
    <path
       d="M 0,0 C 3.01,2.06 3.781,6.168 1.722,9.179 -0.337,12.188 -4.446,12.959 -7.456,10.9 -10.466,8.842 -11.237,4.732 -9.178,1.723 -7.119,-1.287 -3.01,-2.059 0,0"
       style="fill:#f7d80e;fill-opacity:1;fill-rule:nonzero;stroke:none"
       id="path4220"
       transform="matrix(0.25125547,0,0,-0.25125547,14.982809,23.389888)"
       inkscape:export-filename="/home/jchlu/Projects/supportingyou/assets/circles.png"
       inkscape:export-xdpi="96"
       inkscape:export-ydpi="96" />
  </g>
  <g
     inkscape:groupmode="layer"
     id="layer4"
     inkscape:label="Text"
     style="display:inline"
     transform="translate(-5.6917278,-2.6458331)">
    <g
       id="g4148"
       clip-path="url(#clipPath4152)"
       transform="matrix(0.25125547,0,0,-0.25125547,3.44752,25.761363)">
      <g
         id="g4154"
         transform="translate(53.3281,53.3735)">
        <path
           d="m 0,0 c -0.818,0 -1.555,0.103 -2.209,0.307 -0.655,0.204 -1.28,0.564 -1.876,1.078 -0.152,0.129 -0.269,0.275 -0.351,0.439 -0.082,0.163 -0.123,0.327 -0.123,0.491 0,0.268 0.097,0.505 0.289,0.709 0.193,0.205 0.436,0.308 0.728,0.308 0.222,0 0.421,-0.071 0.596,-0.211 C -2.501,2.759 -2.06,2.484 -1.622,2.297 -1.184,2.11 -0.643,2.017 0,2.017 c 0.433,0 0.83,0.066 1.192,0.201 0.363,0.135 0.655,0.316 0.877,0.544 0.222,0.228 0.333,0.488 0.333,0.78 0,0.351 -0.105,0.649 -0.316,0.895 -0.21,0.245 -0.531,0.452 -0.964,0.622 -0.433,0.169 -0.982,0.3 -1.648,0.394 -0.631,0.093 -1.186,0.237 -1.666,0.43 -0.479,0.193 -0.879,0.438 -1.201,0.736 -0.322,0.298 -0.564,0.649 -0.728,1.052 -0.163,0.404 -0.245,0.856 -0.245,1.359 0,0.76 0.196,1.408 0.587,1.946 0.392,0.538 0.921,0.947 1.587,1.228 0.667,0.28 1.403,0.421 2.21,0.421 0.759,0 1.463,-0.115 2.112,-0.342 0.649,-0.228 1.178,-0.518 1.587,-0.868 0.339,-0.269 0.509,-0.579 0.509,-0.93 0,-0.257 -0.1,-0.491 -0.298,-0.701 C 3.729,9.574 3.495,9.468 3.226,9.468 3.051,9.468 2.893,9.521 2.752,9.626 2.565,9.79 2.314,9.945 1.999,10.091 c -0.316,0.146 -0.649,0.268 -1,0.368 -0.35,0.099 -0.678,0.149 -0.981,0.149 -0.503,0 -0.927,-0.065 -1.272,-0.192 -0.345,-0.13 -0.604,-0.305 -0.78,-0.527 C -2.209,9.667 -2.297,9.41 -2.297,9.118 -2.297,8.767 -2.195,8.478 -1.99,8.25 -1.786,8.021 -1.491,7.841 -1.104,7.707 -0.719,7.572 -0.257,7.452 0.281,7.347 0.982,7.218 1.598,7.066 2.13,6.891 2.662,6.716 3.104,6.49 3.454,6.216 3.805,5.941 4.068,5.596 4.243,5.182 4.418,4.767 4.506,4.261 4.506,3.665 4.506,2.905 4.296,2.25 3.875,1.701 3.454,1.151 2.902,0.731 2.218,0.439 1.534,0.146 0.794,0 0,0"
           style="fill:#ffffff;fill-opacity:1;fill-rule:nonzero;stroke:none"
           id="path4156" />
      </g>
      <g
         id="g4158"
         transform="translate(68.5645,65.8403)">
        <path
           d="M 0,0 C 0.304,0 0.549,-0.103 0.736,-0.307 0.923,-0.512 1.017,-0.766 1.017,-1.07 v -6.347 c 0,-0.97 -0.207,-1.829 -0.622,-2.577 -0.416,-0.749 -0.985,-1.333 -1.71,-1.754 -0.725,-0.42 -1.567,-0.631 -2.525,-0.631 -0.958,0 -1.803,0.211 -2.534,0.631 -0.73,0.421 -1.303,1.005 -1.718,1.754 -0.415,0.748 -0.622,1.607 -0.622,2.577 v 6.347 c 0,0.304 0.105,0.558 0.315,0.763 0.211,0.204 0.48,0.307 0.807,0.307 0.269,0 0.511,-0.103 0.728,-0.307 0.216,-0.205 0.324,-0.459 0.324,-0.763 v -6.347 c 0,-0.584 0.125,-1.09 0.377,-1.517 0.251,-0.426 0.584,-0.756 0.999,-0.99 0.415,-0.234 0.856,-0.351 1.324,-0.351 0.503,0 0.97,0.117 1.403,0.351 0.432,0.234 0.783,0.564 1.052,0.99 0.269,0.427 0.403,0.933 0.403,1.517 v 6.347 c 0,0.304 0.087,0.558 0.263,0.763 C -0.543,-0.103 -0.304,0 0,0"
           style="fill:#ffffff;fill-opacity:1;fill-rule:nonzero;stroke:none"
           id="path4160" />
      </g>
      <g
         id="g4162"
         transform="translate(77.2783,59.9316)">
        <path
           d="m 0,0 c 0.222,0 0.438,0.093 0.649,0.28 0.21,0.187 0.386,0.429 0.526,0.728 0.14,0.298 0.21,0.611 0.21,0.938 0,0.339 -0.07,0.655 -0.21,0.947 C 1.035,3.185 0.859,3.421 0.649,3.603 0.438,3.784 0.222,3.875 0,3.875 h -3.261 l 0.21,0.315 V -0.281 L -3.244,0 Z M 0,5.891 C 0.608,5.891 1.178,5.715 1.709,5.365 2.242,5.014 2.671,4.541 2.999,3.945 3.326,3.349 3.489,2.682 3.489,1.946 3.489,1.221 3.326,0.561 2.999,-0.036 2.671,-0.631 2.242,-1.108 1.709,-1.464 1.178,-1.821 0.608,-1.999 0,-1.999 h -3.226 l 0.175,0.315 v -3.629 c 0,-0.304 -0.094,-0.559 -0.28,-0.763 -0.187,-0.204 -0.433,-0.306 -0.737,-0.306 -0.292,0 -0.532,0.102 -0.719,0.306 -0.187,0.204 -0.28,0.459 -0.28,0.763 V 4.821 c 0,0.304 0.102,0.558 0.307,0.763 0.204,0.205 0.458,0.307 0.762,0.307 z"
           style="fill:#ffffff;fill-opacity:1;fill-rule:nonzero;stroke:none"
           id="path4164" />
      </g>
      <g
         id="g4166"
         transform="translate(87.8511,59.9316)">
        <path
           d="m 0,0 c 0.222,0 0.438,0.093 0.648,0.28 0.211,0.187 0.387,0.429 0.527,0.728 0.14,0.298 0.21,0.611 0.21,0.938 0,0.339 -0.07,0.655 -0.21,0.947 C 1.035,3.185 0.859,3.421 0.648,3.603 0.438,3.784 0.222,3.875 0,3.875 h -3.261 l 0.21,0.315 V -0.281 L -3.244,0 Z M 0,5.891 C 0.608,5.891 1.177,5.715 1.709,5.365 2.241,5.014 2.671,4.541 2.998,3.945 3.326,3.349 3.489,2.682 3.489,1.946 3.489,1.221 3.326,0.561 2.998,-0.036 2.671,-0.631 2.241,-1.108 1.709,-1.464 1.177,-1.821 0.608,-1.999 0,-1.999 h -3.227 l 0.176,0.315 v -3.629 c 0,-0.304 -0.094,-0.559 -0.28,-0.763 -0.188,-0.204 -0.433,-0.306 -0.737,-0.306 -0.292,0 -0.532,0.102 -0.719,0.306 -0.187,0.204 -0.28,0.459 -0.28,0.763 V 4.821 c 0,0.304 0.102,0.558 0.307,0.763 0.204,0.205 0.458,0.307 0.762,0.307 z"
           style="fill:#ffffff;fill-opacity:1;fill-rule:nonzero;stroke:none"
           id="path4168" />
      </g>
      <g
         id="g4170"
         transform="translate(102.3691,59.686)">
        <path
           d="M 0,0 C 0,0.783 -0.157,1.493 -0.474,2.13 -0.789,2.767 -1.222,3.273 -1.771,3.647 -2.32,4.021 -2.958,4.208 -3.682,4.208 -4.407,4.208 -5.044,4.021 -5.593,3.647 -6.143,3.273 -6.572,2.77 -6.882,2.139 -7.192,1.508 -7.347,0.794 -7.347,0 c 0,-0.783 0.155,-1.494 0.465,-2.13 0.31,-0.638 0.739,-1.143 1.289,-1.517 0.549,-0.374 1.186,-0.561 1.911,-0.561 0.724,0 1.362,0.187 1.911,0.561 0.549,0.374 0.982,0.879 1.297,1.517 C -0.157,-1.494 0,-0.783 0,0 m 2.279,0 c 0,-0.876 -0.146,-1.695 -0.438,-2.455 -0.292,-0.76 -0.704,-1.429 -1.237,-2.007 -0.532,-0.579 -1.163,-1.032 -1.892,-1.359 -0.731,-0.327 -1.529,-0.491 -2.394,-0.491 -0.865,0 -1.66,0.164 -2.384,0.491 -0.726,0.327 -1.354,0.78 -1.885,1.359 -0.532,0.578 -0.945,1.247 -1.237,2.007 -0.292,0.76 -0.438,1.579 -0.438,2.455 0,0.876 0.146,1.694 0.438,2.454 0.292,0.76 0.705,1.43 1.237,2.008 0.531,0.579 1.159,1.032 1.885,1.359 0.724,0.327 1.519,0.491 2.384,0.491 0.865,0 1.663,-0.164 2.394,-0.491 C -0.559,5.494 0.072,5.041 0.604,4.462 1.137,3.884 1.549,3.214 1.841,2.454 2.133,1.694 2.279,0.876 2.279,0"
           style="fill:#ffffff;fill-opacity:1;fill-rule:nonzero;stroke:none"
           id="path4172" />
      </g>
      <g
         id="g4174"
         transform="translate(108.6104,59.8262)">
        <path
           d="M 0,0 H 4.085 C 4.296,0 4.5,0.097 4.699,0.289 4.897,0.482 5.062,0.745 5.19,1.078 5.318,1.411 5.383,1.776 5.383,2.174 5.383,2.688 5.245,3.118 4.971,3.463 4.695,3.808 4.401,3.98 4.085,3.98 h -4.05 l 0.211,0.561 v -4.962 z m -0.684,-6.277 c -0.327,0 -0.62,0.102 -0.876,0.307 -0.258,0.204 -0.386,0.458 -0.386,0.762 V 4.927 c 0,0.303 0.102,0.558 0.306,0.762 0.205,0.205 0.459,0.308 0.763,0.308 H 4.174 C 4.78,5.997 5.351,5.835 5.882,5.514 6.414,5.192 6.844,4.749 7.172,4.182 7.498,3.615 7.662,2.963 7.662,2.227 7.662,1.782 7.571,1.35 7.391,0.929 7.209,0.508 6.964,0.128 6.654,-0.21 6.345,-0.55 5.997,-0.812 5.61,-1 l 0.018,0.404 C 5.955,-0.771 6.228,-0.979 6.444,-1.219 6.659,-1.458 6.829,-1.715 6.952,-1.99 7.074,-2.265 7.147,-2.56 7.172,-2.875 7.218,-3.168 7.25,-3.425 7.268,-3.647 7.285,-3.869 7.32,-4.056 7.373,-4.208 7.426,-4.36 7.528,-4.477 7.68,-4.559 7.937,-4.711 8.098,-4.93 8.162,-5.216 8.226,-5.503 8.159,-5.757 7.961,-5.979 7.832,-6.131 7.668,-6.228 7.47,-6.268 c -0.199,-0.041 -0.398,-0.041 -0.597,0 -0.198,0.04 -0.362,0.096 -0.491,0.166 -0.198,0.117 -0.398,0.29 -0.596,0.518 -0.198,0.228 -0.359,0.534 -0.482,0.92 -0.122,0.386 -0.185,0.882 -0.185,1.49 0,0.199 -0.034,0.383 -0.104,0.553 -0.07,0.169 -0.17,0.315 -0.298,0.438 -0.129,0.122 -0.293,0.216 -0.491,0.281 -0.2,0.064 -0.433,0.096 -0.702,0.096 h -3.542 l 0.264,0.404 V -5.208 C 0.246,-5.512 0.163,-5.766 0,-5.97 -0.163,-6.175 -0.392,-6.277 -0.684,-6.277"
           style="fill:#ffffff;fill-opacity:1;fill-rule:nonzero;stroke:none"
           id="path4176" />
      </g>
      <g
         id="g4178"
         transform="translate(122.6025,53.5493)">
        <path
           d="m 0,0 c -0.328,0 -0.597,0.102 -0.807,0.307 -0.211,0.204 -0.316,0.458 -0.316,0.762 v 10.17 h 2.28 V 1.069 C 1.157,0.765 1.049,0.511 0.832,0.307 0.616,0.102 0.339,0 0,0 m -3.876,10.257 c -0.304,0 -0.558,0.094 -0.763,0.281 -0.204,0.186 -0.306,0.432 -0.306,0.736 0,0.304 0.102,0.546 0.306,0.727 0.205,0.182 0.459,0.272 0.763,0.272 H 3.91 c 0.303,0 0.558,-0.093 0.763,-0.28 C 4.877,11.806 4.979,11.56 4.979,11.256 4.979,10.952 4.877,10.71 4.673,10.529 4.468,10.347 4.213,10.257 3.91,10.257 Z"
           style="fill:#ffffff;fill-opacity:1;fill-rule:nonzero;stroke:none"
           id="path4180" />
      </g>
      <g
         id="g4182"
         transform="translate(131.6143,54.6187)">
        <path
           d="m 0,0 c 0,-0.304 -0.111,-0.559 -0.333,-0.763 -0.223,-0.204 -0.479,-0.306 -0.771,-0.306 -0.328,0 -0.59,0.102 -0.79,0.306 -0.199,0.204 -0.297,0.459 -0.297,0.763 v 10.134 c 0,0.304 0.105,0.558 0.315,0.763 0.21,0.205 0.48,0.307 0.807,0.307 0.28,0 0.528,-0.102 0.745,-0.307 C -0.108,10.692 0,10.438 0,10.134 Z"
           style="fill:#ffffff;fill-opacity:1;fill-rule:nonzero;stroke:none"
           id="path4184" />
      </g>
      <g
         id="g4186"
         transform="translate(143.5547,65.8228)">
        <path
           d="m 0,0 c 0.28,0 0.509,-0.094 0.685,-0.28 0.173,-0.188 0.262,-0.422 0.262,-0.702 v -10.222 c 0,-0.304 -0.102,-0.559 -0.307,-0.763 -0.205,-0.204 -0.459,-0.306 -0.763,-0.306 -0.152,0 -0.307,0.026 -0.465,0.078 -0.157,0.053 -0.277,0.126 -0.359,0.219 l -6.891,8.749 0.456,0.281 v -8.346 c 0,-0.28 -0.09,-0.514 -0.271,-0.701 -0.182,-0.187 -0.418,-0.28 -0.711,-0.28 -0.281,0 -0.508,0.093 -0.683,0.28 -0.176,0.187 -0.264,0.421 -0.264,0.701 V -1.07 c 0,0.304 0.103,0.558 0.308,0.763 0.204,0.204 0.458,0.307 0.762,0.307 0.164,0 0.333,-0.033 0.509,-0.097 0.175,-0.064 0.303,-0.16 0.385,-0.289 l 6.68,-8.521 -0.298,-0.211 v 8.136 c 0,0.28 0.088,0.514 0.264,0.702 C -0.525,-0.094 -0.293,0 0,0"
           style="fill:#ffffff;fill-opacity:1;fill-rule:nonzero;stroke:none"
           id="path4188" />
      </g>
      <g
         id="g4190"
         transform="translate(152.917,53.3735)">
        <path
           d="m 0,0 c -0.888,0 -1.718,0.164 -2.489,0.491 -0.773,0.327 -1.45,0.78 -2.034,1.359 -0.585,0.579 -1.043,1.248 -1.376,2.007 -0.334,0.76 -0.5,1.579 -0.5,2.455 0,0.877 0.166,1.695 0.5,2.455 0.333,0.76 0.791,1.429 1.376,2.007 0.584,0.579 1.261,1.032 2.034,1.359 0.771,0.328 1.601,0.492 2.489,0.492 0.549,0 1.081,-0.059 1.596,-0.176 C 2.11,12.332 2.583,12.157 3.016,11.923 3.191,11.83 3.323,11.704 3.41,11.546 3.498,11.388 3.542,11.228 3.542,11.064 3.542,10.783 3.449,10.532 3.262,10.31 3.074,10.087 2.835,9.977 2.543,9.977 2.449,9.977 2.353,9.988 2.253,10.012 2.154,10.035 2.057,10.07 1.964,10.117 1.672,10.246 1.361,10.345 1.035,10.416 0.707,10.485 0.362,10.52 0,10.52 -0.76,10.52 -1.452,10.331 -2.077,9.951 -2.703,9.57 -3.199,9.062 -3.568,8.425 -3.936,7.788 -4.12,7.084 -4.12,6.312 c 0,-0.76 0.184,-1.461 0.552,-2.104 0.369,-0.643 0.865,-1.154 1.491,-1.534 0.625,-0.38 1.317,-0.57 2.077,-0.57 0.352,0 0.736,0.035 1.157,0.105 0.421,0.07 0.766,0.164 1.034,0.281 L 2.034,1.964 V 4.962 L 2.332,4.699 H 0.386 c -0.304,0 -0.559,0.099 -0.763,0.298 -0.204,0.199 -0.307,0.45 -0.307,0.754 0,0.304 0.103,0.555 0.307,0.754 0.204,0.199 0.459,0.298 0.763,0.298 H 3.262 C 3.565,6.803 3.816,6.701 4.016,6.496 4.214,6.292 4.313,6.038 4.313,5.734 V 2.017 C 4.313,1.783 4.258,1.59 4.146,1.438 4.036,1.286 3.91,1.163 3.771,1.07 3.232,0.742 2.646,0.482 2.008,0.29 1.37,0.097 0.701,0 0,0"
           style="fill:#ffffff;fill-opacity:1;fill-rule:nonzero;stroke:none"
           id="path4192" />
      </g>
      <g
         id="g4194"
         transform="translate(76.9121,47.5605)">
        <path
           d="M 0,0 C 0.855,0 1.627,-0.326 2.317,-0.978 3.005,-1.629 3.35,-2.456 3.35,-3.461 3.35,-3.796 3.302,-4.141 3.21,-4.494 3.117,-4.849 2.958,-5.192 2.735,-5.527 l -12.672,-18.143 1.005,3.852 v -16.023 c 0,-0.968 -0.326,-1.776 -0.977,-2.428 -0.652,-0.651 -1.405,-0.976 -2.261,-0.976 -0.931,0 -1.722,0.325 -2.372,0.976 -0.652,0.652 -0.978,1.46 -0.978,2.428 v 15.575 l 0.447,-1.785 -12.058,16.022 c -0.373,0.483 -0.634,0.949 -0.782,1.395 -0.149,0.447 -0.223,0.857 -0.223,1.229 0,1.005 0.391,1.823 1.172,2.456 0.781,0.633 1.582,0.949 2.401,0.949 1.041,0 1.954,-0.521 2.735,-1.563 l 10.719,-14.793 -1.563,0.222 9.88,14.459 C -2.01,-0.559 -1.08,0 0,0"
           style="fill:#ffffff;fill-opacity:1;fill-rule:nonzero;stroke:none"
           id="path4196" />
      </g>
      <g
         id="g4198"
         transform="translate(112.5293,27.8535)">
        <path
           d="m 0,0 c 0,2.493 -0.503,4.755 -1.508,6.783 -1.004,2.029 -2.381,3.638 -4.131,4.829 -1.75,1.191 -3.777,1.786 -6.084,1.786 -2.308,0 -4.336,-0.595 -6.085,-1.786 -1.75,-1.191 -3.118,-2.792 -4.104,-4.8 -0.986,-2.01 -1.479,-4.281 -1.479,-6.812 0,-2.493 0.493,-4.754 1.479,-6.782 0.986,-2.03 2.354,-3.639 4.104,-4.829 1.749,-1.192 3.777,-1.786 6.085,-1.786 2.307,0 4.334,0.594 6.084,1.786 1.75,1.19 3.127,2.799 4.131,4.829 C -0.503,-4.754 0,-2.493 0,0 m 7.258,0 c 0,-2.791 -0.467,-5.396 -1.396,-7.815 -0.931,-2.42 -2.244,-4.549 -3.935,-6.392 -1.695,-1.843 -3.705,-3.285 -6.031,-4.327 -2.326,-1.041 -4.866,-1.563 -7.619,-1.563 -2.755,0 -5.285,0.522 -7.593,1.563 -2.308,1.042 -4.308,2.484 -6.001,4.327 -1.694,1.843 -3.006,3.972 -3.935,6.392 -0.931,2.419 -1.396,5.024 -1.396,7.815 0,2.792 0.465,5.396 1.396,7.816 0.929,2.418 2.241,4.55 3.935,6.392 1.693,1.843 3.693,3.284 6.001,4.327 2.308,1.041 4.838,1.563 7.593,1.563 2.753,0 5.293,-0.522 7.619,-1.563 2.326,-1.043 4.336,-2.484 6.031,-4.327 C 3.618,12.366 4.931,10.234 5.862,7.816 6.791,5.396 7.258,2.792 7.258,0"
           style="fill:#ffffff;fill-opacity:1;fill-rule:nonzero;stroke:none"
           id="path4200" />
      </g>
      <g
         id="g4202"
         transform="translate(153.9521,47.4492)">
        <path
           d="m 0,0 c 0.967,0 1.749,-0.326 2.344,-0.978 0.595,-0.651 0.893,-1.46 0.893,-2.427 v -20.21 c 0,-3.089 -0.661,-5.824 -1.982,-8.206 -1.321,-2.382 -3.135,-4.243 -5.442,-5.582 -2.309,-1.34 -4.988,-2.01 -8.04,-2.01 -3.051,0 -5.741,0.67 -8.066,2.01 -2.327,1.339 -4.15,3.2 -5.472,5.582 -1.321,2.382 -1.981,5.117 -1.981,8.206 v 20.21 c 0,0.967 0.335,1.776 1.005,2.427 0.67,0.652 1.525,0.978 2.567,0.978 0.857,0 1.629,-0.326 2.318,-0.978 0.688,-0.651 1.033,-1.46 1.033,-2.427 v -20.21 c 0,-1.862 0.399,-3.471 1.2,-4.828 0.799,-1.36 1.86,-2.411 3.182,-3.155 1.32,-0.745 2.725,-1.116 4.214,-1.116 1.6,0 3.089,0.371 4.466,1.116 1.376,0.744 2.493,1.795 3.35,3.155 0.855,1.357 1.284,2.966 1.284,4.828 v 20.21 c 0,0.967 0.279,1.776 0.838,2.427 C -1.731,-0.326 -0.969,0 0,0"
           style="fill:#ffffff;fill-opacity:1;fill-rule:nonzero;stroke:none"
           id="path4204" />
      </g>
      <g
         id="g4206"
         transform="translate(173.4443,12.3076)">
        <path
           d="M 0,0 C 0,0.498 -0.101,0.95 -0.302,1.355 -0.503,1.761 -0.777,2.082 -1.127,2.32 -1.477,2.558 -1.882,2.678 -2.343,2.678 -2.805,2.678 -3.21,2.558 -3.56,2.32 -3.909,2.082 -4.183,1.763 -4.38,1.361 -4.577,0.959 -4.675,0.505 -4.675,0 c 0,-0.499 0.098,-0.95 0.295,-1.355 0.197,-0.407 0.471,-0.728 0.82,-0.966 0.35,-0.239 0.755,-0.357 1.217,-0.357 0.461,0 0.866,0.118 1.216,0.357 0.35,0.238 0.624,0.559 0.825,0.966 C -0.101,-0.95 0,-0.499 0,0 M 1.45,0 C 1.45,-0.558 1.357,-1.079 1.171,-1.562 0.985,-2.046 0.724,-2.472 0.385,-2.84 0.046,-3.208 -0.355,-3.497 -0.82,-3.704 c -0.465,-0.208 -0.973,-0.313 -1.523,-0.313 -0.551,0 -1.056,0.105 -1.517,0.313 -0.462,0.207 -0.862,0.496 -1.2,0.864 -0.338,0.368 -0.601,0.794 -0.787,1.278 -0.185,0.483 -0.278,1.004 -0.278,1.562 0,0.558 0.093,1.078 0.278,1.562 0.186,0.483 0.449,0.909 0.787,1.277 0.338,0.368 0.738,0.656 1.2,0.865 0.461,0.208 0.966,0.313 1.517,0.313 0.55,0 1.058,-0.105 1.523,-0.313 C -0.355,3.495 0.046,3.207 0.385,2.839 0.724,2.471 0.985,2.045 1.171,1.562 1.357,1.078 1.45,0.558 1.45,0"
           style="fill:#ffffff;fill-opacity:1;fill-rule:nonzero;stroke:none"
           id="path4208" />
      </g>
      <g
         id="g4210"
         transform="translate(177.416,12.3965)">
        <path
           d="m 0,0 h 2.6 c 0.133,0 0.263,0.062 0.389,0.184 0.127,0.123 0.232,0.29 0.313,0.503 0.082,0.21 0.123,0.443 0.123,0.697 0,0.326 -0.087,0.6 -0.262,0.82 C 2.988,2.423 2.8,2.532 2.6,2.532 H 0.022 L 0.156,2.89 v -3.158 z m -0.436,-3.994 c -0.208,0 -0.394,0.064 -0.557,0.195 -0.164,0.13 -0.246,0.292 -0.246,0.485 v 6.449 c 0,0.194 0.066,0.355 0.195,0.485 0.13,0.13 0.292,0.195 0.486,0.195 H 2.655 C 3.042,3.815 3.404,3.713 3.743,3.509 4.081,3.304 4.354,3.021 4.563,2.66 4.771,2.3 4.875,1.886 4.875,1.417 4.875,1.135 4.817,0.859 4.703,0.591 4.587,0.323 4.431,0.081 4.234,-0.134 4.037,-0.35 3.815,-0.517 3.569,-0.636 l 0.012,0.257 C 3.789,-0.49 3.962,-0.623 4.101,-0.775 4.237,-0.928 4.346,-1.092 4.423,-1.266 4.502,-1.44 4.548,-1.629 4.563,-1.829 4.593,-2.016 4.613,-2.18 4.624,-2.32 4.636,-2.462 4.658,-2.581 4.691,-2.678 4.725,-2.774 4.79,-2.849 4.886,-2.9 5.05,-2.997 5.152,-3.137 5.193,-3.319 5.233,-3.501 5.191,-3.663 5.064,-3.805 4.983,-3.901 4.879,-3.963 4.752,-3.988 c -0.126,-0.027 -0.252,-0.027 -0.379,0 -0.126,0.025 -0.23,0.061 -0.312,0.105 -0.126,0.074 -0.253,0.185 -0.379,0.329 -0.127,0.146 -0.229,0.341 -0.307,0.586 -0.078,0.245 -0.118,0.562 -0.118,0.948 0,0.127 -0.022,0.245 -0.067,0.352 -0.044,0.107 -0.107,0.201 -0.189,0.279 -0.082,0.078 -0.186,0.137 -0.313,0.178 -0.126,0.041 -0.274,0.062 -0.446,0.062 h -2.254 l 0.168,0.256 V -3.314 C 0.156,-3.507 0.104,-3.669 0,-3.799 -0.104,-3.93 -0.25,-3.994 -0.436,-3.994"
           style="fill:#ffffff;fill-opacity:1;fill-rule:nonzero;stroke:none"
           id="path4212" />
      </g>
      <g
         id="g4214"
         transform="translate(187.4131,8.291)">
        <path
           d="m 0,0 c -0.565,0 -1.094,0.104 -1.585,0.312 -0.49,0.208 -0.922,0.497 -1.294,0.865 -0.372,0.368 -0.664,0.794 -0.876,1.277 -0.212,0.484 -0.317,1.005 -0.317,1.563 0,0.557 0.105,1.078 0.317,1.561 0.212,0.484 0.504,0.909 0.876,1.277 0.372,0.369 0.804,0.657 1.294,0.866 0.491,0.208 1.02,0.312 1.585,0.312 0.35,0 0.687,-0.038 1.015,-0.112 C 1.342,7.847 1.644,7.735 1.919,7.587 2.03,7.527 2.114,7.447 2.17,7.347 2.226,7.246 2.254,7.145 2.254,7.04 2.254,6.861 2.193,6.701 2.075,6.561 1.956,6.418 1.804,6.348 1.617,6.348 1.559,6.348 1.497,6.355 1.434,6.37 1.37,6.386 1.31,6.407 1.249,6.437 1.063,6.52 0.866,6.583 0.658,6.627 0.449,6.672 0.229,6.694 0,6.694 -0.484,6.694 -0.925,6.573 -1.322,6.331 -1.721,6.09 -2.037,5.767 -2.271,5.36 -2.505,4.955 -2.622,4.508 -2.622,4.017 c 0,-0.485 0.117,-0.931 0.351,-1.339 0.234,-0.409 0.55,-0.736 0.949,-0.977 C -0.925,1.46 -0.484,1.339 0,1.339 0.223,1.339 0.469,1.361 0.736,1.405 1.004,1.45 1.224,1.51 1.394,1.584 L 1.294,1.249 V 3.157 L 1.483,2.99 H 0.245 c -0.193,0 -0.354,0.063 -0.485,0.189 -0.13,0.127 -0.196,0.287 -0.196,0.48 0,0.194 0.066,0.354 0.196,0.48 0.131,0.127 0.292,0.19 0.485,0.19 h 1.83 c 0.194,0 0.354,-0.066 0.48,-0.195 C 2.681,4.004 2.744,3.842 2.744,3.647 V 1.282 C 2.744,1.134 2.709,1.011 2.639,0.915 2.567,0.818 2.487,0.739 2.398,0.68 2.057,0.472 1.683,0.307 1.277,0.185 0.872,0.061 0.446,0 0,0"
           style="fill:#ffffff;fill-opacity:1;fill-rule:nonzero;stroke:none"
           id="path4216" />
      </g>
      <g
         id="g4218"
         transform="translate(45.9106,9.4385)" />
      <g
         id="g4222"
         transform="translate(31.3984,22.4736)" />
      <g
         id="g4226"
         transform="translate(31.4399,53.5674)" />
      <g
         id="g4230"
         transform="translate(50.813,76.7075)" />
      <g
         id="g4234"
         transform="translate(67.1655,81.6997)" />
      <g
         id="g4238"
         transform="translate(164.7441,10.9326)">
        <path
           d="M 0,0 C 0.653,2.012 -0.447,4.172 -2.459,4.826 -4.471,5.479 -6.631,4.378 -7.285,2.366 -7.938,0.355 -6.837,-1.806 -4.825,-2.459 -2.814,-3.112 -0.653,-2.012 0,0"
           style="fill:#ffffff;fill-opacity:1;fill-rule:nonzero;stroke:none"
           id="path4240" />
      </g>
    </g>
  </g>
</svg>
